G04 #@! TF.GenerationSoftware,KiCad,Pcbnew,10.0.6*
G04 #@! TF.CreationDate,2026-09-20T14:24:29+09:00*
G04 #@! TF.ProjectId,ECBoard,4543426f-6172-4642-9e6b-696361645f70,Ver.1.0*
G04 #@! TF.SameCoordinates,Original*
G04 #@! TF.FileFunction,Copper,L1,Top*
G04 #@! TF.FilePolarity,Positive*
%FSLAX46Y46*%
G04 Gerber Fmt 4.6, Leading zero omitted, Abs format (unit mm)*
G04 Created by KiCad (PCBNEW 10.0.6) date 2026-09-20 14:24:29*
%MOMM*%
%LPD*%
G01*
G04 APERTURE LIST*
G04 #@! TA.AperFunction,Conductor*
%ADD10C,0.200000*%
G04 #@! TD*
G04 #@! TA.AperFunction,SMDPad,CuDef*
%ADD11R,4.318000X3.302000*%
G04 #@! TD*
G04 #@! TA.AperFunction,ComponentPad*
%ADD12R,1.498600X1.498600*%
G04 #@! TD*
G04 #@! TA.AperFunction,ComponentPad*
%ADD13C,1.498600*%
G04 #@! TD*
G04 #@! TA.AperFunction,ComponentPad*
%ADD14R,2.250000X2.250000*%
G04 #@! TD*
G04 #@! TA.AperFunction,ComponentPad*
%ADD15C,2.250000*%
G04 #@! TD*
G04 #@! TA.AperFunction,ViaPad*
%ADD16C,0.600000*%
G04 #@! TD*
G04 #@! TA.AperFunction,Conductor*
%ADD17C,0.500000*%
G04 #@! TD*
G04 #@! TA.AperFunction,Conductor*
%ADD18C,0.400000*%
G04 #@! TD*
G04 APERTURE END LIST*
D10*
X135000000Y-46500000D02*
X165000000Y-46500000D01*
X165000000Y-51500000D01*
X135000000Y-51500000D01*
X135000000Y-46500000D01*
G04 #@! TA.AperFunction,Conductor*
G36*
X135000000Y-46500000D02*
G01*
X165000000Y-46500000D01*
X165000000Y-51500000D01*
X135000000Y-51500000D01*
X135000000Y-46500000D01*
G37*
G04 #@! TD.AperFunction*
D11*
X150000000Y-139605000D03*
X150000000Y-110395000D03*
D12*
X166499999Y-128500001D03*
D13*
X166499999Y-122000000D03*
X171000000Y-128500001D03*
X171000000Y-122000000D03*
D14*
X128750000Y-120500000D03*
D15*
X128750000Y-125000000D03*
X128750000Y-129500000D03*
X135250000Y-120500000D03*
X135250000Y-125000000D03*
X135250000Y-129500000D03*
D16*
X152825000Y-49125000D03*
X148550000Y-49125000D03*
X146900000Y-49125000D03*
X151450000Y-49125000D03*
X150025000Y-49125000D03*
D17*
X150000000Y-135250000D02*
X150000000Y-139605000D01*
X135250000Y-120500000D02*
X150000000Y-135250000D01*
X128750000Y-120500000D02*
X138855000Y-110395000D01*
D18*
X128750000Y-120500000D02*
X128750000Y-121825000D01*
X128750000Y-121825000D02*
X135250000Y-128325000D01*
D17*
X138855000Y-110395000D02*
X150000000Y-110395000D01*
D18*
X135250000Y-128325000D02*
X135250000Y-129500000D01*
M02*
