G04 #@! TF.GenerationSoftware,KiCad,Pcbnew,10.0.6*
G04 #@! TF.CreationDate,2026-09-20T14:24:30+09:00*
G04 #@! TF.ProjectId,ECBoard,4543426f-6172-4642-9e6b-696361645f70,Ver.1.0*
G04 #@! TF.SameCoordinates,Original*
G04 #@! TF.FileFunction,Copper,L2,Bot*
G04 #@! TF.FilePolarity,Positive*
%FSLAX46Y46*%
G04 Gerber Fmt 4.6, Leading zero omitted, Abs format (unit mm)*
G04 Created by KiCad (PCBNEW 10.0.6) date 2026-09-20 14:24:30*
%MOMM*%
%LPD*%
G01*
G04 APERTURE LIST*
G04 #@! TA.AperFunction,Conductor*
%ADD10C,0.050000*%
G04 #@! TD*
G04 #@! TA.AperFunction,ComponentPad*
%ADD11R,1.498600X1.498600*%
G04 #@! TD*
G04 #@! TA.AperFunction,ComponentPad*
%ADD12C,1.498600*%
G04 #@! TD*
G04 #@! TA.AperFunction,ComponentPad*
%ADD13R,2.250000X2.250000*%
G04 #@! TD*
G04 #@! TA.AperFunction,ComponentPad*
%ADD14C,2.250000*%
G04 #@! TD*
G04 #@! TA.AperFunction,ViaPad*
%ADD15C,0.600000*%
G04 #@! TD*
G04 #@! TA.AperFunction,Conductor*
%ADD16C,0.400000*%
G04 #@! TD*
G04 APERTURE END LIST*
D10*
X135000000Y-98500000D02*
X165000000Y-98500000D01*
X165000000Y-103500000D01*
X135000000Y-103500000D01*
X135000000Y-98500000D01*
G04 #@! TA.AperFunction,Conductor*
G36*
X135000000Y-98500000D02*
G01*
X165000000Y-98500000D01*
X165000000Y-103500000D01*
X135000000Y-103500000D01*
X135000000Y-98500000D01*
G37*
G04 #@! TD.AperFunction*
D11*
X166499999Y-128500001D03*
D12*
X166499999Y-122000000D03*
X171000000Y-128500001D03*
X171000000Y-122000000D03*
D13*
X128750000Y-120500000D03*
D14*
X128750000Y-125000000D03*
X128750000Y-129500000D03*
X135250000Y-120500000D03*
X135250000Y-125000000D03*
X135250000Y-129500000D03*
D15*
X152825000Y-49125000D03*
X148550000Y-49125000D03*
X146900000Y-49125000D03*
X151450000Y-49125000D03*
X150025000Y-49125000D03*
D16*
X135250000Y-121925000D02*
X128750000Y-128425000D01*
X135250000Y-120500000D02*
X135250000Y-121925000D01*
X128750000Y-128425000D02*
X128750000Y-129500000D01*
X131975000Y-49125000D02*
X129625000Y-51475000D01*
X165325000Y-101000000D02*
X171000000Y-106675000D01*
X150000000Y-101000000D02*
X165325000Y-101000000D01*
X129625000Y-51475000D02*
X129625000Y-107650000D01*
X129625000Y-107650000D02*
X138200000Y-116225000D01*
X171000000Y-122000000D02*
X171000000Y-106675000D01*
X171000000Y-128500001D02*
X171000000Y-122000000D01*
X138200000Y-116225000D02*
X138200000Y-122050000D01*
X138200000Y-122050000D02*
X135250000Y-125000000D01*
X150025000Y-49125000D02*
X152825000Y-49125000D01*
X146900000Y-49125000D02*
X131975000Y-49125000D01*
X148550000Y-49125000D02*
X150025000Y-49125000D01*
X146900000Y-49125000D02*
X148550000Y-49125000D01*
X126300000Y-130550000D02*
X129775000Y-134025000D01*
X129775000Y-134025000D02*
X160975000Y-134025000D01*
X160975000Y-134025000D02*
X166499999Y-128500001D01*
X128750000Y-125000000D02*
X126300000Y-127450000D01*
X166499999Y-128500001D02*
X166499999Y-122000000D01*
X126300000Y-127450000D02*
X126300000Y-130550000D01*
M02*
