G04 #@! TF.GenerationSoftware,KiCad,Pcbnew,10.0.6*
G04 #@! TF.CreationDate,2026-09-20T14:24:30+09:00*
G04 #@! TF.ProjectId,ECBoard,4543426f-6172-4642-9e6b-696361645f70,Ver.1.0*
G04 #@! TF.SameCoordinates,Original*
G04 #@! TF.FileFunction,Legend,Top*
G04 #@! TF.FilePolarity,Positive*
%FSLAX46Y46*%
G04 Gerber Fmt 4.6, Leading zero omitted, Abs format (unit mm)*
G04 Created by KiCad (PCBNEW 10.0.6) date 2026-09-20 14:24:30*
%MOMM*%
%LPD*%
G01*
G04 APERTURE LIST*
%ADD10C,0.100000*%
%ADD11C,0.400000*%
%ADD12C,0.150000*%
%ADD13C,0.152400*%
%ADD14C,0.508000*%
%ADD15C,0.127000*%
%ADD16C,0.200000*%
%ADD17C,0.000000*%
G04 APERTURE END LIST*
D10*
X143978014Y-105918609D02*
X144311347Y-105918609D01*
X144454204Y-106442419D02*
X143978014Y-106442419D01*
X143978014Y-106442419D02*
X143978014Y-105442419D01*
X143978014Y-105442419D02*
X144454204Y-105442419D01*
X145454204Y-106347180D02*
X145406585Y-106394800D01*
X145406585Y-106394800D02*
X145263728Y-106442419D01*
X145263728Y-106442419D02*
X145168490Y-106442419D01*
X145168490Y-106442419D02*
X145025633Y-106394800D01*
X145025633Y-106394800D02*
X144930395Y-106299561D01*
X144930395Y-106299561D02*
X144882776Y-106204323D01*
X144882776Y-106204323D02*
X144835157Y-106013847D01*
X144835157Y-106013847D02*
X144835157Y-105870990D01*
X144835157Y-105870990D02*
X144882776Y-105680514D01*
X144882776Y-105680514D02*
X144930395Y-105585276D01*
X144930395Y-105585276D02*
X145025633Y-105490038D01*
X145025633Y-105490038D02*
X145168490Y-105442419D01*
X145168490Y-105442419D02*
X145263728Y-105442419D01*
X145263728Y-105442419D02*
X145406585Y-105490038D01*
X145406585Y-105490038D02*
X145454204Y-105537657D01*
X146978014Y-105918609D02*
X147120871Y-105966228D01*
X147120871Y-105966228D02*
X147168490Y-106013847D01*
X147168490Y-106013847D02*
X147216109Y-106109085D01*
X147216109Y-106109085D02*
X147216109Y-106251942D01*
X147216109Y-106251942D02*
X147168490Y-106347180D01*
X147168490Y-106347180D02*
X147120871Y-106394800D01*
X147120871Y-106394800D02*
X147025633Y-106442419D01*
X147025633Y-106442419D02*
X146644681Y-106442419D01*
X146644681Y-106442419D02*
X146644681Y-105442419D01*
X146644681Y-105442419D02*
X146978014Y-105442419D01*
X146978014Y-105442419D02*
X147073252Y-105490038D01*
X147073252Y-105490038D02*
X147120871Y-105537657D01*
X147120871Y-105537657D02*
X147168490Y-105632895D01*
X147168490Y-105632895D02*
X147168490Y-105728133D01*
X147168490Y-105728133D02*
X147120871Y-105823371D01*
X147120871Y-105823371D02*
X147073252Y-105870990D01*
X147073252Y-105870990D02*
X146978014Y-105918609D01*
X146978014Y-105918609D02*
X146644681Y-105918609D01*
X147787538Y-106442419D02*
X147692300Y-106394800D01*
X147692300Y-106394800D02*
X147644681Y-106347180D01*
X147644681Y-106347180D02*
X147597062Y-106251942D01*
X147597062Y-106251942D02*
X147597062Y-105966228D01*
X147597062Y-105966228D02*
X147644681Y-105870990D01*
X147644681Y-105870990D02*
X147692300Y-105823371D01*
X147692300Y-105823371D02*
X147787538Y-105775752D01*
X147787538Y-105775752D02*
X147930395Y-105775752D01*
X147930395Y-105775752D02*
X148025633Y-105823371D01*
X148025633Y-105823371D02*
X148073252Y-105870990D01*
X148073252Y-105870990D02*
X148120871Y-105966228D01*
X148120871Y-105966228D02*
X148120871Y-106251942D01*
X148120871Y-106251942D02*
X148073252Y-106347180D01*
X148073252Y-106347180D02*
X148025633Y-106394800D01*
X148025633Y-106394800D02*
X147930395Y-106442419D01*
X147930395Y-106442419D02*
X147787538Y-106442419D01*
X148978014Y-106442419D02*
X148978014Y-105918609D01*
X148978014Y-105918609D02*
X148930395Y-105823371D01*
X148930395Y-105823371D02*
X148835157Y-105775752D01*
X148835157Y-105775752D02*
X148644681Y-105775752D01*
X148644681Y-105775752D02*
X148549443Y-105823371D01*
X148978014Y-106394800D02*
X148882776Y-106442419D01*
X148882776Y-106442419D02*
X148644681Y-106442419D01*
X148644681Y-106442419D02*
X148549443Y-106394800D01*
X148549443Y-106394800D02*
X148501824Y-106299561D01*
X148501824Y-106299561D02*
X148501824Y-106204323D01*
X148501824Y-106204323D02*
X148549443Y-106109085D01*
X148549443Y-106109085D02*
X148644681Y-106061466D01*
X148644681Y-106061466D02*
X148882776Y-106061466D01*
X148882776Y-106061466D02*
X148978014Y-106013847D01*
X149454205Y-106442419D02*
X149454205Y-105775752D01*
X149454205Y-105966228D02*
X149501824Y-105870990D01*
X149501824Y-105870990D02*
X149549443Y-105823371D01*
X149549443Y-105823371D02*
X149644681Y-105775752D01*
X149644681Y-105775752D02*
X149739919Y-105775752D01*
X150501824Y-106442419D02*
X150501824Y-105442419D01*
X150501824Y-106394800D02*
X150406586Y-106442419D01*
X150406586Y-106442419D02*
X150216110Y-106442419D01*
X150216110Y-106442419D02*
X150120872Y-106394800D01*
X150120872Y-106394800D02*
X150073253Y-106347180D01*
X150073253Y-106347180D02*
X150025634Y-106251942D01*
X150025634Y-106251942D02*
X150025634Y-105966228D01*
X150025634Y-105966228D02*
X150073253Y-105870990D01*
X150073253Y-105870990D02*
X150120872Y-105823371D01*
X150120872Y-105823371D02*
X150216110Y-105775752D01*
X150216110Y-105775752D02*
X150406586Y-105775752D01*
X150406586Y-105775752D02*
X150501824Y-105823371D01*
X151597063Y-105442419D02*
X151930396Y-106442419D01*
X151930396Y-106442419D02*
X152263729Y-105442419D01*
X152978015Y-106394800D02*
X152882777Y-106442419D01*
X152882777Y-106442419D02*
X152692301Y-106442419D01*
X152692301Y-106442419D02*
X152597063Y-106394800D01*
X152597063Y-106394800D02*
X152549444Y-106299561D01*
X152549444Y-106299561D02*
X152549444Y-105918609D01*
X152549444Y-105918609D02*
X152597063Y-105823371D01*
X152597063Y-105823371D02*
X152692301Y-105775752D01*
X152692301Y-105775752D02*
X152882777Y-105775752D01*
X152882777Y-105775752D02*
X152978015Y-105823371D01*
X152978015Y-105823371D02*
X153025634Y-105918609D01*
X153025634Y-105918609D02*
X153025634Y-106013847D01*
X153025634Y-106013847D02*
X152549444Y-106109085D01*
X153454206Y-106442419D02*
X153454206Y-105775752D01*
X153454206Y-105966228D02*
X153501825Y-105870990D01*
X153501825Y-105870990D02*
X153549444Y-105823371D01*
X153549444Y-105823371D02*
X153644682Y-105775752D01*
X153644682Y-105775752D02*
X153739920Y-105775752D01*
X154073254Y-106347180D02*
X154120873Y-106394800D01*
X154120873Y-106394800D02*
X154073254Y-106442419D01*
X154073254Y-106442419D02*
X154025635Y-106394800D01*
X154025635Y-106394800D02*
X154073254Y-106347180D01*
X154073254Y-106347180D02*
X154073254Y-106442419D01*
X155073253Y-106442419D02*
X154501825Y-106442419D01*
X154787539Y-106442419D02*
X154787539Y-105442419D01*
X154787539Y-105442419D02*
X154692301Y-105585276D01*
X154692301Y-105585276D02*
X154597063Y-105680514D01*
X154597063Y-105680514D02*
X154501825Y-105728133D01*
X155501825Y-106347180D02*
X155549444Y-106394800D01*
X155549444Y-106394800D02*
X155501825Y-106442419D01*
X155501825Y-106442419D02*
X155454206Y-106394800D01*
X155454206Y-106394800D02*
X155501825Y-106347180D01*
X155501825Y-106347180D02*
X155501825Y-106442419D01*
X156168491Y-105442419D02*
X156263729Y-105442419D01*
X156263729Y-105442419D02*
X156358967Y-105490038D01*
X156358967Y-105490038D02*
X156406586Y-105537657D01*
X156406586Y-105537657D02*
X156454205Y-105632895D01*
X156454205Y-105632895D02*
X156501824Y-105823371D01*
X156501824Y-105823371D02*
X156501824Y-106061466D01*
X156501824Y-106061466D02*
X156454205Y-106251942D01*
X156454205Y-106251942D02*
X156406586Y-106347180D01*
X156406586Y-106347180D02*
X156358967Y-106394800D01*
X156358967Y-106394800D02*
X156263729Y-106442419D01*
X156263729Y-106442419D02*
X156168491Y-106442419D01*
X156168491Y-106442419D02*
X156073253Y-106394800D01*
X156073253Y-106394800D02*
X156025634Y-106347180D01*
X156025634Y-106347180D02*
X155978015Y-106251942D01*
X155978015Y-106251942D02*
X155930396Y-106061466D01*
X155930396Y-106061466D02*
X155930396Y-105823371D01*
X155930396Y-105823371D02*
X155978015Y-105632895D01*
X155978015Y-105632895D02*
X156025634Y-105537657D01*
X156025634Y-105537657D02*
X156073253Y-105490038D01*
X156073253Y-105490038D02*
X156168491Y-105442419D01*
D11*
X167215537Y-48703961D02*
X169501252Y-48703961D01*
X168358395Y-47561104D02*
X168358395Y-49846819D01*
X166834585Y-100894438D02*
X169882204Y-100894438D01*
D12*
X150068990Y-124595238D02*
X150021371Y-124738095D01*
X150021371Y-124738095D02*
X149973752Y-124785714D01*
X149973752Y-124785714D02*
X149878514Y-124833333D01*
X149878514Y-124833333D02*
X149735657Y-124833333D01*
X149735657Y-124833333D02*
X149640419Y-124785714D01*
X149640419Y-124785714D02*
X149592800Y-124738095D01*
X149592800Y-124738095D02*
X149545180Y-124642857D01*
X149545180Y-124642857D02*
X149545180Y-124261905D01*
X149545180Y-124261905D02*
X150545180Y-124261905D01*
X150545180Y-124261905D02*
X150545180Y-124595238D01*
X150545180Y-124595238D02*
X150497561Y-124690476D01*
X150497561Y-124690476D02*
X150449942Y-124738095D01*
X150449942Y-124738095D02*
X150354704Y-124785714D01*
X150354704Y-124785714D02*
X150259466Y-124785714D01*
X150259466Y-124785714D02*
X150164228Y-124738095D01*
X150164228Y-124738095D02*
X150116609Y-124690476D01*
X150116609Y-124690476D02*
X150068990Y-124595238D01*
X150068990Y-124595238D02*
X150068990Y-124261905D01*
X149545180Y-125785714D02*
X149545180Y-125214286D01*
X149545180Y-125500000D02*
X150545180Y-125500000D01*
X150545180Y-125500000D02*
X150402323Y-125404762D01*
X150402323Y-125404762D02*
X150307085Y-125309524D01*
X150307085Y-125309524D02*
X150259466Y-125214286D01*
X169157199Y-126583332D02*
X169204818Y-126440475D01*
X169204818Y-126440475D02*
X169204818Y-126202380D01*
X169204818Y-126202380D02*
X169157199Y-126107142D01*
X169157199Y-126107142D02*
X169109579Y-126059523D01*
X169109579Y-126059523D02*
X169014341Y-126011904D01*
X169014341Y-126011904D02*
X168919103Y-126011904D01*
X168919103Y-126011904D02*
X168823865Y-126059523D01*
X168823865Y-126059523D02*
X168776246Y-126107142D01*
X168776246Y-126107142D02*
X168728627Y-126202380D01*
X168728627Y-126202380D02*
X168681008Y-126392856D01*
X168681008Y-126392856D02*
X168633389Y-126488094D01*
X168633389Y-126488094D02*
X168585770Y-126535713D01*
X168585770Y-126535713D02*
X168490532Y-126583332D01*
X168490532Y-126583332D02*
X168395294Y-126583332D01*
X168395294Y-126583332D02*
X168300056Y-126535713D01*
X168300056Y-126535713D02*
X168252437Y-126488094D01*
X168252437Y-126488094D02*
X168204818Y-126392856D01*
X168204818Y-126392856D02*
X168204818Y-126154761D01*
X168204818Y-126154761D02*
X168252437Y-126011904D01*
X168204818Y-125678570D02*
X169204818Y-125440475D01*
X169204818Y-125440475D02*
X168490532Y-125249999D01*
X168490532Y-125249999D02*
X169204818Y-125059523D01*
X169204818Y-125059523D02*
X168204818Y-124821428D01*
X169204818Y-123916666D02*
X169204818Y-124488094D01*
X169204818Y-124202380D02*
X168204818Y-124202380D01*
X168204818Y-124202380D02*
X168347675Y-124297618D01*
X168347675Y-124297618D02*
X168442913Y-124392856D01*
X168442913Y-124392856D02*
X168490532Y-124488094D01*
X164443518Y-128499999D02*
X164681613Y-128499999D01*
X164586375Y-128738094D02*
X164681613Y-128499999D01*
X164681613Y-128499999D02*
X164586375Y-128261904D01*
X164872089Y-128642856D02*
X164681613Y-128499999D01*
X164681613Y-128499999D02*
X164872089Y-128357142D01*
X164443518Y-128499999D02*
X164681613Y-128499999D01*
X164586375Y-128738094D02*
X164681613Y-128499999D01*
X164681613Y-128499999D02*
X164586375Y-128261904D01*
X164872089Y-128642856D02*
X164681613Y-128499999D01*
X164681613Y-128499999D02*
X164872089Y-128357142D01*
X132317200Y-125671904D02*
X132364819Y-125529047D01*
X132364819Y-125529047D02*
X132364819Y-125290952D01*
X132364819Y-125290952D02*
X132317200Y-125195714D01*
X132317200Y-125195714D02*
X132269580Y-125148095D01*
X132269580Y-125148095D02*
X132174342Y-125100476D01*
X132174342Y-125100476D02*
X132079104Y-125100476D01*
X132079104Y-125100476D02*
X131983866Y-125148095D01*
X131983866Y-125148095D02*
X131936247Y-125195714D01*
X131936247Y-125195714D02*
X131888628Y-125290952D01*
X131888628Y-125290952D02*
X131841009Y-125481428D01*
X131841009Y-125481428D02*
X131793390Y-125576666D01*
X131793390Y-125576666D02*
X131745771Y-125624285D01*
X131745771Y-125624285D02*
X131650533Y-125671904D01*
X131650533Y-125671904D02*
X131555295Y-125671904D01*
X131555295Y-125671904D02*
X131460057Y-125624285D01*
X131460057Y-125624285D02*
X131412438Y-125576666D01*
X131412438Y-125576666D02*
X131364819Y-125481428D01*
X131364819Y-125481428D02*
X131364819Y-125243333D01*
X131364819Y-125243333D02*
X131412438Y-125100476D01*
X132364819Y-124148095D02*
X132364819Y-124719523D01*
X132364819Y-124433809D02*
X131364819Y-124433809D01*
X131364819Y-124433809D02*
X131507676Y-124529047D01*
X131507676Y-124529047D02*
X131602914Y-124624285D01*
X131602914Y-124624285D02*
X131650533Y-124719523D01*
D13*
X139840000Y-108794800D02*
X139840000Y-141205200D01*
X139840000Y-141205200D02*
X147508260Y-141205200D01*
X147508260Y-108794800D02*
X139840000Y-108794800D01*
X152491740Y-141205200D02*
X160160000Y-141205200D01*
X160160000Y-108794800D02*
X152491740Y-108794800D01*
X160160000Y-141205200D02*
X160160000Y-108794800D01*
D14*
X150000000Y-142221200D02*
G75*
G02*
X149626188Y-141766540I0J381000D01*
G01*
X150373812Y-141766540D02*
G75*
G02*
X150000000Y-142221200I-373812J-73660D01*
G01*
D13*
X165625799Y-122637640D02*
X165625799Y-127442292D01*
X167582039Y-128374200D02*
X169925298Y-128374200D01*
X169925298Y-122125800D02*
X167574701Y-122125800D01*
X171874199Y-127862360D02*
X171874199Y-122637640D01*
D15*
X126750000Y-117000000D02*
X126750000Y-133000000D01*
X126750000Y-133000000D02*
X137250000Y-133000000D01*
X137250000Y-117000000D02*
X126750000Y-117000000D01*
X137250000Y-133000000D02*
X137250000Y-117000000D01*
D16*
X128850000Y-116250000D02*
G75*
G02*
X128650000Y-116250000I-100000J0D01*
G01*
X128650000Y-116250000D02*
G75*
G02*
X128850000Y-116250000I100000J0D01*
G01*
D17*
G36*
X168256618Y-112100121D02*
G01*
X168256618Y-112260802D01*
X168840632Y-112260802D01*
X169424647Y-112260802D01*
X169424647Y-112100121D01*
X169424647Y-111939440D01*
X169529708Y-111939440D01*
X169634769Y-111939440D01*
X169634769Y-112211362D01*
X169634769Y-112483284D01*
X168785012Y-112483284D01*
X167935255Y-112483284D01*
X167935255Y-112211362D01*
X167935255Y-111939440D01*
X168095936Y-111939440D01*
X168256618Y-111939440D01*
X168256618Y-112100121D01*
G37*
G36*
X173639440Y-106519537D02*
G01*
X173639440Y-106791459D01*
X173478759Y-106791459D01*
X173318078Y-106791459D01*
X173318078Y-106630778D01*
X173318078Y-106470097D01*
X172792773Y-106470097D01*
X172267469Y-106470097D01*
X172267469Y-106630778D01*
X172267469Y-106791459D01*
X172106788Y-106791459D01*
X171946107Y-106791459D01*
X171946107Y-106519537D01*
X171946107Y-106247615D01*
X172792773Y-106247615D01*
X173639440Y-106247615D01*
X173639440Y-106519537D01*
G37*
G36*
X164783430Y-107360024D02*
G01*
X164783430Y-107631946D01*
X164678370Y-107631946D01*
X164573309Y-107631946D01*
X164573309Y-109365449D01*
X164573309Y-111098953D01*
X164678370Y-111098953D01*
X164783430Y-111098953D01*
X164783430Y-111370875D01*
X164783430Y-111642797D01*
X164251946Y-111642797D01*
X163720462Y-111642797D01*
X163720462Y-111370875D01*
X163720462Y-111098953D01*
X163825523Y-111098953D01*
X163930584Y-111098953D01*
X163930584Y-109365449D01*
X163930584Y-107631946D01*
X163825523Y-107631946D01*
X163720462Y-107631946D01*
X163720462Y-107360024D01*
X163720462Y-107088101D01*
X164251946Y-107088101D01*
X164783430Y-107088101D01*
X164783430Y-107360024D01*
G37*
G36*
X167626253Y-107360024D02*
G01*
X167626253Y-107631946D01*
X166785766Y-107631946D01*
X165945280Y-107631946D01*
X165945280Y-108361191D01*
X165945280Y-109090437D01*
X166785766Y-109090437D01*
X167626253Y-109090437D01*
X167626253Y-110366617D01*
X167626253Y-111642797D01*
X166513844Y-111642797D01*
X165401435Y-111642797D01*
X165401435Y-111370875D01*
X165401435Y-111098953D01*
X166248102Y-111098953D01*
X167094769Y-111098953D01*
X167094769Y-110369707D01*
X167094769Y-109640462D01*
X166248102Y-109640462D01*
X165401435Y-109640462D01*
X165401435Y-108364281D01*
X165401435Y-107088101D01*
X166513844Y-107088101D01*
X167626253Y-107088101D01*
X167626253Y-107360024D01*
G37*
G36*
X169103284Y-108089269D02*
G01*
X169103284Y-109090437D01*
X170104452Y-109090437D01*
X171105620Y-109090437D01*
X171105620Y-108089269D01*
X171105620Y-107088101D01*
X171371362Y-107088101D01*
X171637104Y-107088101D01*
X171637104Y-109365449D01*
X171637104Y-111642797D01*
X171371362Y-111642797D01*
X171105620Y-111642797D01*
X171105620Y-110641629D01*
X171105620Y-109640462D01*
X170104452Y-109640462D01*
X169103284Y-109640462D01*
X169103284Y-110641629D01*
X169103284Y-111642797D01*
X168785012Y-111642797D01*
X168466739Y-111642797D01*
X168466739Y-109365449D01*
X168466739Y-107088101D01*
X168785012Y-107088101D01*
X169103284Y-107088101D01*
X169103284Y-108089269D01*
G37*
G36*
X173330438Y-107360024D02*
G01*
X173330438Y-107631946D01*
X173225377Y-107631946D01*
X173120316Y-107631946D01*
X173120316Y-109365449D01*
X173120316Y-111098953D01*
X173225377Y-111098953D01*
X173330438Y-111098953D01*
X173330438Y-111370875D01*
X173330438Y-111642797D01*
X172798954Y-111642797D01*
X172267469Y-111642797D01*
X172267469Y-111370875D01*
X172267469Y-111098953D01*
X172372530Y-111098953D01*
X172477591Y-111098953D01*
X172477591Y-109365449D01*
X172477591Y-107631946D01*
X172372530Y-107631946D01*
X172267469Y-107631946D01*
X172267469Y-107360024D01*
X172267469Y-107088101D01*
X172798954Y-107088101D01*
X173330438Y-107088101D01*
X173330438Y-107360024D01*
G37*
G36*
X165413795Y-112359683D02*
G01*
X165413795Y-112779926D01*
X167944525Y-112779926D01*
X170475255Y-112779926D01*
X170475255Y-112359683D01*
X170475255Y-111939440D01*
X170635936Y-111939440D01*
X170796618Y-111939440D01*
X170796618Y-112359683D01*
X170796618Y-112779926D01*
X172057348Y-112779926D01*
X173318078Y-112779926D01*
X173318078Y-112359683D01*
X173318078Y-111939440D01*
X173478759Y-111939440D01*
X173639440Y-111939440D01*
X173639440Y-112359683D01*
X173639440Y-112779926D01*
X174059683Y-112779926D01*
X174479927Y-112779926D01*
X174479927Y-113058028D01*
X174479927Y-113336131D01*
X168519270Y-113336131D01*
X162558613Y-113336131D01*
X162558613Y-113058028D01*
X162558613Y-112779926D01*
X163664842Y-112779926D01*
X164771070Y-112779926D01*
X164771070Y-112359683D01*
X164771070Y-111939440D01*
X165092433Y-111939440D01*
X165413795Y-111939440D01*
X165413795Y-112359683D01*
G37*
G36*
X174479927Y-105672870D02*
G01*
X174479927Y-105950972D01*
X172638272Y-105950972D01*
X170796618Y-105950972D01*
X170796618Y-106371216D01*
X170796618Y-106791459D01*
X170635936Y-106791459D01*
X170475255Y-106791459D01*
X170475255Y-106371216D01*
X170475255Y-105950972D01*
X170055012Y-105950972D01*
X169634769Y-105950972D01*
X169634769Y-106371216D01*
X169634769Y-106791459D01*
X169529708Y-106791459D01*
X169424647Y-106791459D01*
X169424647Y-106371216D01*
X169424647Y-105950972D01*
X167258540Y-105950972D01*
X165092433Y-105950972D01*
X165092433Y-106371216D01*
X165092433Y-106791459D01*
X164931752Y-106791459D01*
X164771070Y-106791459D01*
X164771070Y-106371216D01*
X164771070Y-105950972D01*
X163664842Y-105950972D01*
X162558613Y-105950972D01*
X162558613Y-105672870D01*
X162558613Y-105394768D01*
X168519270Y-105394768D01*
X174479927Y-105394768D01*
X174479927Y-105672870D01*
G37*
M02*
